<svg version="1.1" xmlns="http://www.w3.org/2000/svg" xmlns:xlink="http://www.w3.org/1999/xlink" width="210.000000pt" height="222.000000pt" viewBox="0,0,242.15001,256"><g fill="#ffffff" fill-rule="nonzero" stroke="none" stroke-width="1" stroke-linecap="butt" stroke-linejoin="miter" stroke-miterlimit="10" stroke-dasharray="" stroke-dashoffset="0" font-family="none" font-weight="none" font-size="none" text-anchor="none" style="mix-blend-mode: normal"><g transform="translate(0.66774,0.1238) scale(1.15315,1.15315)"><g transform="translate(0,222) scale(0.1,-0.1)"><path d="M975,2035c-101,-15 -196,-45 -274,-85c-68,-34 -80,-34 -25,0c42,27 38,38 -8,20c-115,-45 -144,-64 -223,-145c-45,-46 -90,-101 -100,-122c-9,-21 -30,-48 -45,-60c-15,-12 -33,-37 -40,-55c-26,-71 -45,-113 -52,-118c-4,-3 -11,-17 -17,-30c-8,-23 -9,-22 -8,11c1,21 6,34 11,31c5,-3 7,2 3,11c-3,10 -3,17 1,17c8,0 34,61 28,67c-1,2 -15,-19 -30,-46c-27,-51 -33,-87 -22,-131l7,-25l-12,25c-6,14 -13,20 -16,13c-2,-7 0,-21 6,-32c6,-11 11,-28 10,-38c0,-14 -3,-12 -11,7l-11,25l-9,-35c-15,-59 -12,-278 5,-355c31,-140 104,-314 165,-395c53,-70 173,-192 239,-242c82,-62 209,-129 231,-121c11,5 13,3 7,-7c-5,-8 -4,-11 3,-6c6,3 50,-2 99,-13c48,-11 117,-22 153,-25c74,-6 41,3 -85,24c-81,13 -108,24 -76,33c12,3 19,2 16,-3c-14,-22 216,-26 334,-5c103,18 251,62 251,75c0,5 15,17 33,26c79,41 321,251 314,273c-1,3 26,62 60,131c34,69 65,136 68,150l5,25l-11,-25c-89,-193 -152,-279 -291,-397c-92,-79 -288,-183 -288,-153c0,6 4,10 9,10c6,0 47,18 93,40c95,46 218,139 265,202c167,222 213,345 213,571c0,95 -4,127 -25,192c-21,64 -68,167 -51,112c34,-109 40,-151 40,-267c0,-129 -12,-194 -64,-333c-54,-143 -189,-299 -330,-381c-110,-64 -143,-76 -270,-97c-140,-23 -201,-24 -314,-4c-106,19 -178,47 -273,108c-104,67 -149,111 -214,209c-31,48 -60,84 -63,80c-4,-3 -4,1 -1,10c4,9 -2,24 -13,34c-26,27 -40,68 -49,154c-29,273 30,460 204,647c17,18 29,35 27,38c-2,3 -1,3 2,0c11,-8 43,15 39,28c-2,6 8,21 23,33c32,25 155,93 128,70c-29,-23 -7,-20 53,9c173,84 336,94 556,34c113,-31 214,-75 222,-96c5,-12 64,-53 77,-53c13,0 5,27 -15,49c-12,12 -22,29 -23,36c-1,8 -20,30 -42,49c-21,19 -34,35 -28,36c6,0 31,-18 55,-40c24,-22 47,-41 51,-41c5,-1 12,-2 18,-3c5,0 37,-25 70,-54c33,-29 60,-49 60,-44c0,6 -21,38 -47,72c-69,93 -147,144 -288,190c-38,13 -82,32 -96,41c-25,17 -77,26 -162,28c-23,1 -36,5 -32,11c4,6 -22,10 -71,10c-43,0 -75,3 -71,6c9,9 187,10 187,2c0,-11 42,-10 58,1c35,22 -177,26 -303,6zM1013,2013c-7,-2 -19,-2 -25,0c-7,3 -2,5 12,5c14,0 19,-2 13,-5zM157,1283c-3,-10 -5,-4 -5,12c0,17 2,24 5,18c2,-7 2,-21 0,-30zM870,246c0,-2 -7,-7 -16,-10c-8,-3 -12,-2 -9,4c6,10 25,14 25,6z"></path><path d="M1305,2020c-8,-13 5,-13 25,0c13,8 13,10 -2,10c-9,0 -20,-4 -23,-10z"></path><path d="M1697,1696c46,-49 81,-96 99,-135c16,-34 32,-61 37,-61c4,0 5,-5 1,-12c-4,-7 -3,-8 4,-4c9,5 9,13 0,29c-10,20 -10,21 5,8c10,-7 17,-19 17,-26c0,-6 7,-12 15,-12c13,0 13,3 2,16c-8,9 -19,30 -26,46c-17,44 -197,225 -223,225c-2,0 29,-34 69,-74z"></path><path d="M225,1611c-3,-5 0,-13 6,-17c7,-4 9,-3 5,4c-3,5 0,13 6,15c9,4 10,6 1,6c-6,1 -14,-3 -18,-8z"></path><path d="M565,1423c-90,-47 -105,-87 -105,-278c0,-164 8,-209 46,-254c44,-52 92,-63 261,-59c147,3 150,3 187,32c41,31 75,94 76,139c0,26 -2,27 -55,27c-39,0 -55,-4 -55,-13c0,-8 -8,-21 -18,-30c-15,-14 -42,-17 -159,-17c-180,0 -173,-7 -173,161c0,175 -7,169 173,169c78,0 147,-4 153,-8c6,-4 16,-17 23,-29c10,-19 20,-23 61,-23c48,0 50,1 50,28c-1,36 -31,102 -61,129c-40,37 -75,43 -227,43c-114,-1 -154,-4 -177,-17z"></path><path d="M1030,1433c0,-5 13,-39 30,-78c25,-60 69,-165 194,-465l23,-55l49,-3l50,-3l23,56c13,30 27,55 31,55c4,0 18,-25 31,-55l23,-55h48c41,0 50,4 58,23c13,33 140,336 193,462c26,61 47,114 47,118c0,4 -27,7 -59,7h-59l-45,-102c-24,-57 -64,-151 -87,-210c-24,-60 -46,-108 -50,-108c-4,0 -15,19 -24,43l-16,43l44,100c25,54 56,129 70,167l25,67h-62h-62l-34,-90c-19,-50 -37,-90 -40,-90c-4,0 -22,40 -43,88l-36,87l-61,3c-34,2 -61,0 -61,-4c0,-4 29,-75 65,-159c68,-159 72,-173 54,-224c-19,-54 -13,-63 -129,219c-77,186 -64,170 -132,170c-32,0 -58,-3 -58,-7z"></path></g></g></g></svg>